<svg width="50" height="50" viewBox="0 0 50 50" fill="none" xmlns="http://www.w3.org/2000/svg">
<g clip-path="url(#clip0)">
<path d="M48.0204 11.0324L25.3185 0.0728027C25.1172 -0.0242676 24.8828 -0.0242676 24.6816 0.0728027L1.97959 11.0324C1.72647 11.1545 1.56563 11.4109 1.56563 11.6919V38.3081C1.56563 38.5891 1.72647 38.8455 1.97959 38.9676L24.6815 49.9272C24.7821 49.9757 24.8911 50 25 50C25.1089 50 25.2178 49.9757 25.3185 49.9272L48.0204 38.9676C48.2735 38.8455 48.4344 38.5891 48.4344 38.3081V11.692C48.4344 11.4108 48.2734 11.1546 48.0204 11.0324ZM25 1.54575L46.0173 11.6919L39.9248 14.6332C39.8862 14.6038 39.8455 14.5766 39.8008 14.555L18.9263 4.47788L25 1.54575ZM17.2722 5.30601L38.2589 15.4375L33.9605 17.5126L12.9825 7.38521L17.2722 5.30601ZM38.7499 16.8269V24.4974L34.735 26.4357V18.7652L38.7499 16.8269ZM46.9695 37.8485L25.7324 48.1006V23.1112L30.7981 20.6657C31.1624 20.4898 31.3151 20.052 31.1393 19.6876C30.9634 19.3235 30.5256 19.1706 30.1612 19.3465L25 21.8382L22.9691 20.8578C22.6048 20.6817 22.167 20.8346 21.9911 21.1989C21.8152 21.5631 21.968 22.001 22.3322 22.1769L24.2676 23.1112V48.1006L3.03047 37.8483V12.8588L19.2023 20.666C19.305 20.7156 19.4135 20.739 19.5202 20.739C19.7925 20.739 20.054 20.5865 20.1803 20.3249C20.3562 19.9606 20.2034 19.5227 19.8392 19.3468L3.98272 11.6919L11.2586 8.17944L33.26 18.8008C33.2632 18.8053 33.2668 18.8093 33.2701 18.8137V27.6027C33.2701 27.8547 33.3997 28.089 33.6132 28.2231C33.7317 28.2975 33.867 28.3351 34.0026 28.3351C34.1112 28.3351 34.2201 28.311 34.321 28.2623L39.8008 25.6168C40.0539 25.4947 40.2147 25.2384 40.2147 24.9573V16.1199L46.9695 12.8589V37.8485Z" fill="black"/>
<path d="M9.07481 35.0076L5.74326 33.3993C5.37881 33.2232 4.94112 33.3761 4.76524 33.7404C4.58936 34.1046 4.74209 34.5425 5.10635 34.7184L8.43789 36.3267C8.54053 36.3763 8.64903 36.3998 8.75576 36.3998C9.02803 36.3998 9.28955 36.2472 9.41582 35.9856C9.5918 35.6212 9.43907 35.1836 9.07481 35.0076Z" fill="black"/>
<path d="M12.1409 33.0119L5.74786 29.9256C5.3835 29.7497 4.94571 29.9024 4.76983 30.2668C4.59405 30.631 4.74678 31.0689 5.11104 31.2448L11.5041 34.3311C11.6067 34.3806 11.7152 34.4042 11.822 34.4042C12.0942 34.4042 12.3558 34.2516 12.482 33.99C12.6579 33.6256 12.5052 33.1877 12.1409 33.0119Z" fill="black"/>
</g>
<defs>
<clipPath id="clip0">
<rect width="50" height="50" fill="white"/>
</clipPath>
</defs>
</svg>
