<svg width="50" height="50" viewBox="0 0 50 50" fill="none" xmlns="http://www.w3.org/2000/svg">
<g clip-path="url(#clip0)">
<path d="M44.0877 17.6677C43.2719 7.12631 34.0649 -0.75784 23.5235 0.0580203C14.116 0.786077 6.64187 8.26027 5.91382 17.6677C4.50655 17.9774 3.21636 18.6811 2.19417 19.6967C-0.731914 22.6281 -0.727539 27.3763 2.20375 30.3024C3.31364 31.4102 4.74289 32.1423 6.29045 32.3956C6.40648 32.46 6.53615 32.4957 6.66875 32.4998C6.72155 32.4984 6.77426 32.4928 6.82623 32.4831C6.8481 32.4779 6.86946 32.4712 6.89039 32.4631C7.09287 32.4789 7.29369 32.4998 7.502 32.4998H9.16851C9.62868 32.4998 10.0018 32.1267 10.0018 31.6665V18.3344C10.0018 17.8743 9.62868 17.5012 9.16851 17.5012H7.60116C8.5018 7.89114 17.0223 0.830864 26.6323 1.7314C34.9956 2.51519 41.6183 9.13789 42.4021 17.5012H40.8322C40.372 17.5012 39.999 17.8743 39.999 18.3344V31.6665C39.999 32.1267 40.372 32.4998 40.8322 32.4998H42.4987V34.1663C42.4987 40.594 37.4742 45.4794 30.7048 45.801C30.2233 44.0282 28.3958 42.9813 26.6229 43.4629C24.8501 43.9444 23.8032 45.772 24.2848 47.5448C24.7663 49.3177 26.5939 50.3645 28.3667 49.8829C29.5333 49.5661 30.4361 48.6413 30.7248 47.4675C38.4341 47.1317 44.1652 41.5356 44.1652 34.1663V32.3089C45.5413 31.9911 46.8021 31.297 47.8066 30.3041C49.2127 28.8976 50.0011 26.9892 49.998 25.0005C49.9997 21.4697 47.5383 18.4159 44.0877 17.6677ZM8.33526 19.1676V30.8331H7.502C7.25775 30.8331 7.01371 30.8187 6.77124 30.7898C3.57352 30.4007 1.29665 27.4929 1.68578 24.2951C2.01064 21.6257 4.11836 19.5243 6.78874 19.2076C7.02548 19.18 7.26369 19.1665 7.502 19.1676H8.33526ZM27.5001 48.3315C26.5797 48.3315 25.8336 47.5854 25.8336 46.665C25.8336 45.7446 26.5797 44.9985 27.5001 44.9985C28.4206 44.9985 29.1666 45.7446 29.1666 46.665C29.1666 47.5854 28.4205 48.3315 27.5001 48.3315ZM43.232 30.789C42.9887 30.8185 42.7438 30.8331 42.4987 30.8331H41.6655V19.1676H42.4987C45.7201 19.1582 48.3391 21.7619 48.3486 24.9833C48.3571 27.9343 46.1606 30.4267 43.232 30.789Z" fill="black"/>
</g>
<defs>
<clipPath id="clip0">
<rect width="50" height="50" fill="white"/>
</clipPath>
</defs>
</svg>
