<svg width="50" height="50" viewBox="0 0 50 50" fill="none" xmlns="http://www.w3.org/2000/svg">
<path d="M25 50C38.7851 50 50 38.7851 50 25C50 11.2149 38.7851 0 25 0C11.2149 0 0 11.2149 0 25C0 38.7851 11.2149 50 25 50ZM25 2.2293C37.556 2.2293 47.7707 12.444 47.7707 25C47.7707 37.556 37.556 47.7707 25 47.7707C12.444 47.7707 2.2293 37.556 2.2293 25C2.2293 12.444 12.444 2.2293 25 2.2293Z" fill="black"/>
<path d="M18.8377 22.7531C21.3873 22.7531 23.4537 20.6861 23.4537 18.1371C23.4543 15.5875 21.3873 13.5205 18.8377 13.5205C16.2881 13.5205 14.2217 15.5875 14.2217 18.1365C14.2242 20.6849 16.2893 22.75 18.8377 22.7531ZM18.8377 15.7498C20.1558 15.7498 21.2244 16.8184 21.2244 18.1365C21.225 19.4551 20.1564 20.5238 18.8377 20.5238C17.5197 20.5238 16.451 19.4551 16.451 18.1365C16.4523 16.819 17.5203 15.7517 18.8377 15.7498Z" fill="black"/>
<path d="M26.2664 32.143C26.2664 34.6926 28.3334 36.7589 30.8824 36.7589C33.432 36.7589 35.499 34.6926 35.499 32.143C35.499 29.5933 33.432 27.5264 30.8824 27.5264C28.334 27.5295 26.2695 29.5946 26.2664 32.143ZM33.2697 32.143C33.2697 33.461 32.201 34.5296 30.8824 34.5296C29.5643 34.5296 28.4957 33.461 28.4957 32.143C28.4957 30.8249 29.5643 29.7563 30.8824 29.7557C32.2004 29.7575 33.2678 30.8249 33.2697 32.143Z" fill="black"/>
<path d="M16.5127 38.0135C17.0283 38.35 17.7194 38.2045 18.0553 37.6888L33.8121 13.5285C34.0304 13.1945 34.0541 12.7697 33.8743 12.4139C33.6939 12.0581 33.3375 11.8255 32.9394 11.8043C32.5413 11.7832 32.1619 11.976 31.9448 12.3106L16.188 36.4709C15.8515 36.9872 15.997 37.6776 16.5127 38.0135Z" fill="black"/>
</svg>
