<svg width="50" height="50" viewBox="0 0 50 50" fill="none" xmlns="http://www.w3.org/2000/svg">
<g clip-path="url(#clip0)">
<path d="M34.8629 15.3594C34.6816 15.3595 34.5078 15.4315 34.3797 15.5598L22.4742 27.4652L15.6227 20.6133C15.4921 20.4898 15.3192 20.4209 15.1395 20.4209C14.9597 20.4209 14.7868 20.4898 14.6562 20.6133L11.8941 23.3758C11.766 23.504 11.6941 23.6778 11.6941 23.859C11.6941 24.0402 11.766 24.214 11.8941 24.3422L21.9922 34.4395C22.0556 34.503 22.1309 34.5534 22.2138 34.5877C22.2968 34.6221 22.3856 34.6398 22.4754 34.6398C22.5651 34.6398 22.654 34.6221 22.7369 34.5877C22.8199 34.5534 22.8952 34.503 22.9586 34.4395L38.1082 19.2887C38.2363 19.1604 38.3083 18.9866 38.3083 18.8053C38.3083 18.624 38.2363 18.4501 38.1082 18.3219L35.3461 15.5598C35.218 15.4315 35.0442 15.3595 34.8629 15.3594ZM22.4742 32.9895L13.3441 23.859L15.141 22.0621L21.9922 28.9148C22.0556 28.9784 22.1309 29.0288 22.2138 29.0631C22.2968 29.0975 22.3856 29.1152 22.4754 29.1152C22.5651 29.1152 22.654 29.0975 22.7369 29.0631C22.8199 29.0288 22.8952 28.9784 22.9586 28.9148L34.8629 17.0098L36.6598 18.8066L22.4742 32.9895Z" fill="black"/>
<path d="M25 6.37988C21.3172 6.37988 17.7172 7.47194 14.6551 9.51797C11.593 11.564 9.20639 14.4721 7.79706 17.8745C6.38774 21.2769 6.01899 25.0209 6.73746 28.6328C7.45593 32.2448 9.22934 35.5626 11.8334 38.1667C14.4375 40.7708 17.7554 42.5443 21.3673 43.2627C24.9793 43.9812 28.7233 43.6124 32.1257 42.2031C35.5281 40.7938 38.4362 38.4072 40.4822 35.3451C42.5282 32.283 43.6203 28.6829 43.6203 25.0002C43.6147 20.0635 41.6511 15.3306 38.1604 11.8398C34.6696 8.34904 29.9367 6.38547 25 6.37988ZM25 42.2533C21.5876 42.2533 18.2519 41.2414 15.4147 39.3456C12.5774 37.4498 10.366 34.7553 9.06018 31.6027C7.75433 28.4501 7.41266 24.9811 8.07838 21.6343C8.74409 18.2875 10.3873 15.2133 12.8002 12.8004C15.2131 10.3875 18.2873 8.7443 21.6341 8.07858C24.9809 7.41287 28.4499 7.75454 31.6025 9.06039C34.7551 10.3662 37.4496 12.5776 39.3454 15.4149C41.2412 18.2521 42.2531 21.5878 42.2531 25.0002C42.2479 29.5744 40.4285 33.9598 37.1941 37.1943C33.9596 40.4288 29.5742 42.2481 25 42.2533Z" fill="black"/>
<path d="M49.2309 27.1932C49.7328 26.5727 50.0066 25.7987 50.0066 25.0006C50.0066 24.2025 49.7328 23.4286 49.2309 22.8081L48.1106 21.4096C47.8958 21.1412 47.7488 20.8251 47.682 20.488C47.6152 20.1508 47.6305 19.8025 47.7266 19.4725L48.2266 17.7573C48.4462 16.9903 48.3994 16.1716 48.0939 15.4346C47.7885 14.6976 47.2423 14.0858 46.5445 13.6991L44.9793 12.8397C44.6778 12.6746 44.4205 12.4393 44.2291 12.1537C44.0377 11.8682 43.9178 11.5407 43.8797 11.1991L43.6844 9.41978C43.6008 8.62566 43.2472 7.88431 42.6825 7.31969C42.1179 6.75506 41.3766 6.4014 40.5824 6.31783L38.8031 6.12251C38.4615 6.08451 38.134 5.96478 37.8485 5.77344C37.5629 5.58211 37.3276 5.3248 37.1625 5.02329L36.3031 3.45767C35.9223 2.75419 35.3112 2.20308 34.5722 1.89682C33.8332 1.59056 33.0113 1.54777 32.2445 1.77564L30.5297 2.27525C30.1995 2.37119 29.8511 2.38635 29.5139 2.31946C29.1766 2.25256 28.8604 2.10557 28.5918 1.89087L27.1934 0.770559C26.5728 0.268825 25.7989 -0.00488281 25.0008 -0.00488281C24.2027 -0.00488281 23.4288 0.268825 22.8082 0.770559L21.4098 1.89087C21.1411 2.10512 20.825 2.25181 20.488 2.31862C20.1509 2.38543 19.8027 2.37043 19.4727 2.27486L17.7574 1.77486C16.9905 1.55514 16.1717 1.60183 15.4347 1.9073C14.6976 2.21278 14.0859 2.75902 13.6992 3.45689L12.8399 5.02212C12.6747 5.32364 12.4395 5.58097 12.1539 5.77237C11.8683 5.96376 11.5409 6.08359 11.1992 6.12173L9.41994 6.31704C8.62583 6.40061 7.88448 6.75428 7.31985 7.31891C6.75523 7.88353 6.40156 8.62488 6.31799 9.419L6.12268 11.1983C6.08467 11.5399 5.96494 11.8674 5.7736 12.153C5.58227 12.4385 5.32496 12.6738 5.02346 12.8389L3.45783 13.6983C2.75451 14.0793 2.20354 14.6905 1.8973 15.4294C1.59105 16.1683 1.54816 16.9901 1.7758 17.7569L2.27619 19.4713C2.37214 19.8015 2.3873 20.1499 2.3204 20.4872C2.25351 20.8244 2.10652 21.1407 1.89182 21.4092L0.771505 22.8077C0.269566 23.4282 -0.00427246 24.2021 -0.00427246 25.0002C-0.00427246 25.7984 0.269566 26.5723 0.771505 27.1928L1.89182 28.5913C2.10656 28.8596 2.25356 29.1758 2.32039 29.5129C2.38722 29.8501 2.37193 30.1984 2.2758 30.5284L1.7758 32.2436C1.55606 33.0105 1.60265 33.8293 1.90798 34.5664C2.2133 35.3034 2.75934 35.9153 3.45705 36.3022L5.02228 37.1616C5.3238 37.3267 5.58113 37.562 5.77253 37.8475C5.96392 38.1331 6.08376 38.4606 6.12189 38.8022L6.31721 40.5815C6.40078 41.3756 6.75445 42.117 7.31907 42.6816C7.88369 43.2462 8.62505 43.5999 9.41916 43.6834L11.1985 43.8788C11.5401 43.9168 11.8676 44.0365 12.1531 44.2278C12.4387 44.4192 12.674 44.6765 12.8391 44.978L13.6985 46.5436C14.0793 47.2471 14.6904 47.7982 15.4294 48.1045C16.1684 48.4107 16.9903 48.4535 17.757 48.2256L19.4715 47.7252C19.8017 47.6296 20.15 47.6146 20.4872 47.6815C20.8245 47.7484 21.1407 47.8952 21.4094 48.1096L22.8078 49.2299C23.4283 49.7319 24.2023 50.0057 25.0004 50.0057C25.7985 50.0057 26.5725 49.7319 27.193 49.2299L28.5914 48.1096C28.8599 47.895 29.176 47.748 29.5131 47.6812C29.8503 47.6144 30.1985 47.6296 30.5285 47.7256L32.2438 48.2256C33.0105 48.4533 33.8322 48.4103 34.5711 48.1041C35.3099 47.7979 35.9211 47.2469 36.302 46.5436L37.1613 44.9784C37.3265 44.6769 37.5618 44.4195 37.8473 44.2281C38.1329 44.0367 38.4603 43.9169 38.802 43.8788L40.5813 43.6834C41.3754 43.5999 42.1167 43.2462 42.6814 42.6816C43.246 42.117 43.5996 41.3756 43.6832 40.5815L43.8785 38.8022C43.9165 38.4606 44.0363 38.1331 44.2276 37.8475C44.4189 37.562 44.6762 37.3267 44.9777 37.1616L46.5434 36.3022C47.2467 35.9212 47.7977 35.31 48.1039 34.5711C48.4102 33.8322 48.453 33.0104 48.2254 32.2436L47.725 30.5292C47.6291 30.199 47.6139 29.8506 47.6808 29.5133C47.7477 29.1761 47.8947 28.8598 48.1094 28.5913L49.2309 27.1932ZM47.0434 27.7374C46.6915 28.1773 46.4506 28.6954 46.3411 29.248C46.2315 29.8006 46.2564 30.3714 46.4137 30.9124L46.9145 32.6268C47.0533 33.0947 47.027 33.5961 46.8401 34.0469C46.6532 34.4977 46.317 34.8706 45.8879 35.103L44.3219 35.9624C43.8275 36.2333 43.4057 36.6194 43.0923 37.088C42.7788 37.5566 42.5829 38.0938 42.5211 38.6542L42.3258 40.4334C42.2745 40.9179 42.0586 41.3702 41.7141 41.7147C41.3696 42.0592 40.9173 42.2751 40.4328 42.3264L38.6531 42.5217C38.0928 42.5837 37.5557 42.7798 37.0872 43.0933C36.6188 43.4068 36.2327 43.8286 35.9617 44.3229L35.1024 45.8885C34.8698 46.3174 34.497 46.6534 34.0463 46.8403C33.5956 47.0272 33.0944 47.0536 32.6266 46.9151L30.9117 46.4147C30.3709 46.2571 29.8001 46.232 29.2476 46.3415C28.695 46.4511 28.1769 46.692 27.7371 47.044L26.3387 48.1643C25.96 48.4708 25.4876 48.638 25.0004 48.638C24.5132 48.638 24.0408 48.4708 23.6621 48.1643L22.2637 47.044C21.8238 46.6921 21.3056 46.4512 20.7531 46.3416C20.2005 46.232 19.6296 46.2569 19.0887 46.4143L17.3746 46.9147C16.9067 47.0531 16.4055 47.0266 15.9548 46.8397C15.5041 46.6529 15.1312 46.317 14.8985 45.8881L14.0391 44.3221C13.7681 43.8277 13.382 43.406 12.9134 43.0925C12.4449 42.779 11.9076 42.5831 11.3473 42.5213L9.56799 42.326C9.08349 42.2747 8.63124 42.0588 8.28673 41.7143C7.94223 41.3698 7.72631 40.9176 7.67502 40.4331L7.47971 38.6534C7.41771 38.0931 7.22166 37.556 6.90814 37.0875C6.59462 36.619 6.17285 36.2329 5.67853 35.962L4.11291 35.1026C3.68722 34.8666 3.35403 34.4934 3.16767 34.0438C2.98132 33.5942 2.95279 33.0947 3.08674 32.6268L3.58713 30.912C3.74459 30.3711 3.76961 29.8004 3.66009 29.2478C3.55056 28.6953 3.3097 28.1772 2.95783 27.7374L1.83674 26.3389C1.5304 25.9602 1.36328 25.4878 1.36328 25.0006C1.36328 24.5135 1.5304 24.0411 1.83674 23.6624L2.95705 22.2639C3.3089 21.824 3.54978 21.3058 3.65937 20.7533C3.76896 20.2007 3.74405 19.6299 3.58674 19.0889L3.08674 17.3745C2.94793 16.9066 2.97417 16.4052 3.16107 15.9544C3.34797 15.5036 3.68417 15.1307 4.1133 14.8983L5.67932 14.0389C6.17369 13.768 6.59548 13.3819 6.90895 12.9133C7.22242 12.4447 7.41833 11.9075 7.4801 11.3471L7.67541 9.56783C7.72706 9.08312 7.94349 8.63082 8.28852 8.28649C8.63356 7.94217 9.0863 7.72668 9.57111 7.67603L11.3508 7.48072C11.9111 7.41872 12.4482 7.22267 12.9167 6.90915C13.3852 6.59562 13.7712 6.17386 14.0422 5.67954L14.9016 4.11392C15.1374 3.68879 15.5101 3.35591 15.9591 3.1694C16.4081 2.98289 16.907 2.9537 17.3746 3.08658L19.0895 3.58697C19.6303 3.74449 20.2011 3.76955 20.7536 3.66002C21.3062 3.55049 21.8242 3.30959 22.2641 2.95767L23.6625 1.83657C24.0412 1.53017 24.5136 1.363 25.0008 1.363C25.488 1.363 25.9604 1.53017 26.3391 1.83657L27.7375 2.95689C28.1776 3.30853 28.6957 3.54928 29.2482 3.65886C29.8008 3.76845 30.3716 3.74366 30.9125 3.58658L32.627 3.08658C33.0949 2.94829 33.596 2.97478 34.0467 3.16163C34.4974 3.34848 34.8703 3.68436 35.1031 4.11314L35.9625 5.67915C36.2335 6.17353 36.6196 6.59532 37.0882 6.90879C37.5567 7.22225 38.0939 7.41817 38.6543 7.47993L40.4336 7.67525C40.9181 7.72653 41.3704 7.94245 41.7149 8.28696C42.0594 8.63147 42.2753 9.08372 42.3266 9.56822L42.5219 11.3479C42.5839 11.9082 42.7799 12.4453 43.0935 12.9138C43.407 13.3823 43.8287 13.7683 44.3231 14.0393L45.8887 14.8987C46.3144 15.1346 46.6476 15.5078 46.834 15.9574C47.0205 16.407 47.0491 16.9065 46.9152 17.3745L46.4149 19.0893C46.2574 19.6301 46.2324 20.2009 46.3419 20.7535C46.4514 21.306 46.6923 21.8241 47.0442 22.2639L48.1645 23.6624C48.4708 24.0411 48.6379 24.5135 48.6379 25.0006C48.6379 25.4878 48.4708 25.9602 48.1645 26.3389L47.0434 27.7374Z" fill="black"/>
</g>
<defs>
<clipPath id="clip0">
<rect width="50" height="50" fill="white"/>
</clipPath>
</defs>
</svg>
